<?xml version="1.0" encoding="UTF-8"?>
<svg width="48" height="48" viewBox="0 0 48 48" fill="none" xmlns="http://www.w3.org/2000/svg">
  <defs>
    <linearGradient id="dubstackFavGradient" x1="0" y1="0" x2="48" y2="48" gradientUnits="userSpaceOnUse">
      <stop stop-color="#23f0c7"/>
      <stop offset="0.55" stop-color="#12b88f"/>
      <stop offset="1" stop-color="#0b2c24"/>
    </linearGradient>
  </defs>
  <rect x="0.5" y="0.5" width="47" height="47" rx="14" fill="url(#dubstackFavGradient)"/>
  <path d="M16 11h7.2c9.4 0 17 7.6 17 17s-7.6 17-17 17H16c-1.66 0-3-1.34-3-3V14c0-1.66 1.34-3 3-3z" fill="rgba(0, 10, 8, 0.45)"/>
  <path d="M20 15.5h2.4c6.8 0 12.3 5.5 12.3 12.3s-5.5 12.3-12.3 12.3H20c-1.38 0-2.5-1.12-2.5-2.5V18c0-1.38 1.12-2.5 2.5-2.5z" fill="#f4fff9"/>
  <path d="M23 20h0.8c4.47 0 8.1 3.63 8.1 8.1s-3.63 8.1-8.1 8.1H23c-1.1 0-2-0.9-2-2V22c0-1.1 0.9-2 2-2z" fill="#08211c" opacity="0.35"/>
</svg>
